# xmcd CD database file
#
# Track frame offsets:
#	180
#	13424
#	36272
#	54356
#	69256
#	84475
#	102991
#	123778
#	138785
#	154248
#
# Disc length: 2347 seconds
#
# Revision: 2
# Processed by: cddbd v1.5.1PL0 Copyright (c) Steve Scherf et al.
# Submitted via: CDex 1.51
#
DISCID=7b09290a
DTITLE=Tom McFarland - Just Got In From Portland
DYEAR=1985
DGENRE=Blues
TTITLE0=Just Got In From Portland
TTITLE1=Worried `Bout My Baby
TTITLE2=Cold Steel
TTITLE3=Blues Fall Down Like Rain
TTITLE4=The Tickler
TTITLE5=Rainy Day Blues
TTITLE6=Bugs
TTITLE7=1945
TTITLE8=Zig Zag
TTITLE9=Goin' Back To Oakland
EXTD=YEAR: 1985
EXTT0=
EXTT1=
EXTT2=
EXTT3=
EXTT4=
EXTT5=
EXTT6=
EXTT7=
EXTT8=
EXTT9=
PLAYORDER=
